<?xml version="1.0" encoding="UTF-8" standalone="no"?>
<svg
   xmlns:dc="http://purl.org/dc/elements/1.1/"
   xmlns:cc="http://creativecommons.org/ns#"
   xmlns:rdf="http://www.w3.org/1999/02/22-rdf-syntax-ns#"
   xmlns:svg="http://www.w3.org/2000/svg"
   xmlns="http://www.w3.org/2000/svg"
   id="svg35"
   version="1.1"
   viewBox="0 0 800 200">
  <metadata
     id="metadata39">
    <rdf:RDF>
      <cc:Work
         rdf:about="">
        <dc:format>image/svg+xml</dc:format>
        <dc:type
           rdf:resource="http://purl.org/dc/dcmitype/StillImage" />
      </cc:Work>
    </rdf:RDF>
  </metadata>
  <defs
     id="defs17">
  </defs>
  <!-- colors at https://github.com/OSGeo/osgeo/tree/master/marketing/branding -->
  <g
     id="g33"
     transform="translate(5,5)">
    <g
       id="g31"
       transform="scale(1.5)">
      <!--<path class="st1" d="M 65,57.4 42.3,42.3 57.4,65 80.1,80.1 Z m -3.9,6.4 c -1.5,0 -2.7,-1.2 -2.7,-2.7 0,-1.5 1.2,-2.7 2.7,-2.7 1.5,0 2.7,1.2 2.7,2.7 0,1.5 -1.2,2.7 -2.7,2.7" id="path12" style="fill:#4daf5c" />
      <polygon class="st0" points="42.3,80.1 57.3,70.1 61.2,93.3 65.1,70.1 57.4,65 52.3,57.3 29.1,61.2 52.3,65.1 " id="polygon14" style="fill:#4daf5c" />
      <polygon class="st0" points="57.3,52.3 65,57.4 70.1,65.1 93.3,61.2 70.1,57.3 80.1,42.3 65.1,52.3 61.2,29.1 " id="polygon16" style="fill:#4daf5c" />     -->
      <g
         id="g23"
         transform="translate(70,93)">
        <g
           id="g21"
           transform="scale(0.7,-0.7)">
          <path
             d="m 0,0 -0.4617,0.6242 -0.6339,0.5488 -0.356,0.4413 -0.629,0.6429 -0.3538,0.4884 -0.2531,0.6248 0.0315,0.6585 0.0473,0.9876 0.0831,0.7503 0.9589,1.3212 0.7328,1.5205 0.6159,1.0548 0.4729,1.0145 0.4705,0.9675 0.2914,1.1645 0.1505,1.1712 0.0448,0.9406 0.1301,0.748 -0.1006,0.8536 0.0989,1.0794 0.8448,1.8921 0.269,1.6844 0.0722,1.5049 0.1392,1.9261 -0.1428,1.9395 -0.1766,2.224 -0.3019,1.5702 -0.4051,1.3864 -0.6806,1.5409 -0.7619,1.8042 0.1692,0.5811 0.4926,0.4479 0.813,0.2441 0.726,0.3895 1.4357,1.4397 1.1583,1.5474 0.4773,1.1084 0.0519,1.0817 -0.0244,1.4626 -0.3603,1.3371 -0.5573,1.158 -0.5777,0.7347 -0.627,0.69 -0.4141,1.1985 -0.6401,1.3975 -0.703,1.0706 -0.7007,1.118 -0.2866,0.9093 -0.2775,1.0973 -0.7163,1.7785 -0.5687,0.9229 -0.8461,1.0304 -0.9473,0.8938 -1.0503,0.7104 -0.9158,0.5624 -1.0636,0.428 -0.8308,0.3696 -0.7436,0.2242 -0.5958,0.3583 -0.6874,0.4102 -0.356,0.4414 0.0246,0.5173 -0.0266,0.4255 0.0269,0.5644 0.0493,0.0447 0.8266,0.5262 1.9936,1.2716 0.8915,0.9003 0.8915,0.9 0.3609,0.6426 0.1009,1.1265 -0.0491,0.9453 -0.1071,0.7121 -0.0292,0.3787 0.0606,0.2798 0.26,0.5062 0.6383,0.5349 0.3161,0.6923 0.2733,0.788 0.0337,0.7055 0.0763,0.6092 0.6295,0.347 0.5579,0.822 0.2489,1.2609 0.0516,1.0817 -0.2506,0.6718 -0.2237,1.2364 -0.2866,0.9094 -0.1094,0.665 -0.1142,0.5712 0.036,0.7526 -0.4544,1.3416 -0.7498,1.0729 -0.5374,0.5916 -0.9182,0.5154 -0.7526,0.036 -0.7055,0.0337 -0.7053,0.0337 -0.6539,0.1256 -0.7078,-0.0133 -0.3158,0.2979 -0.3203,0.2038 -0.6965,0.222 -0.6562,0.0785 -0.6046,0.1703 -0.8913,0.0899 -0.7055,0.0337 -0.8935,0.0428 -0.7571,-0.0581 -0.6832,-0.4858 -0.9966,-0.1409 -0.9006,-0.0984 -0.665,-0.1097 -0.9967,-0.1409 -1.0618,-0.5147 -0.1165,-0.4658 -0.4099,-0.6876 -0.8402,-0.8082 -0.5533,-0.7277 -0.0474,-0.9878 0.0202,-0.5667 -0.1301,-0.748 -0.4907,-0.4006 -0.6585,-0.9587 -0.1726,-0.6516 0.0133,-0.7076 -0.0876,-0.8444 0.0178,-0.6137 -0.034,-0.7056 0.112,-0.6179 0.2081,-0.5757 0.1658,-0.4794 0.0422,-1.0862 0.1162,-0.5241 0.2532,-0.6248 0.0601,-0.7101 0.1454,-0.9025 -0.4054,-0.5936 -0.1391,-0.936 0.0178,-0.6137 0.3626,-0.3002 0.4592,-0.2576 0.6001,-0.2645 0.1723,-0.3382 0.2395,-0.9071 -0.036,-0.7526 -0.2712,-0.7412 -0.5868,-0.4434 -0.8084,-0.1499 -0.4771,-0.1185 -0.8019,-0.009 -0.5219,-0.0692 -0.5666,-0.0201 -0.6137,-0.0178 -0.6585,0.0314 -0.7591,-0.1049 -0.6676,-0.1567 -0.8022,-0.3337 -0.7971,-0.5796 -0.6316,-0.3941 -0.7438,-0.7659 -0.4569,-0.6851 -0.6497,-0.7705 -0.6027,-0.7724 -0.6182,-0.5684 -1.0956,-0.7639 -1.1497,-0.8144 -0.7271,-0.6996 -0.7291,-0.7387 -0.6678,-0.7024 -0.6687,-0.722 -0.6452,-0.6437 -0.5284,-0.6891 -0.2384,-0.425 -0.064,-0.513 -0.0717,-0.671 0.0467,-0.6769 0.3943,-0.8722 0.3274,-0.6109 0.3473,-0.612 0.7795,-1.1086 0.2767,-0.43 0.6964,-0.7674 0.6259,-0.5856 1.0582,-0.6659 0.9292,-0.4612 0.6562,-0.3685 0.5406,-0.3036 0.5995,-0.3067 0.5216,-0.2829 0.5791,-0.3251 0.6948,-0.3906 0.6834,-0.2112 0.5205,-0.3027 0.6732,-0.4292 0.3622,-0.2951 0.3824,-0.2959 0.5318,-0.4819 0.2974,-0.411 0.1545,-0.5035 0.1749,-0.4847 0.1797,-0.3855 0.2446,-0.2696 0.0904,-0.1828 0.004,-3e-4 0.3756,-0.529 0.3898,-0.2375 0.6735,-0.3974 0.6026,-0.3572 0.4363,-0.021 0.2684,-0.4872 -0.1944,-1.0126 -0.0902,-1.127 -3e-4,-0.7662 0.0238,-1.023 0.4397,-1.4809 0.216,-0.8132 0.3532,-1.0024 0.6715,-1.1999 0.2855,-0.8898 0.5573,-1.3039 0.4898,-1.1911 0.4204,-1.1152 0.3254,-0.8183 0.057,-1.0976 -0.002,-0.8028 -0.0298,-0.6191 0.1142,-0.6624 -0.0643,-0.5808 -0.4348,-0.709 -0.6067,-1.2484 -0.1887,-0.9034 -0.1112,-0.7976 -0.007,-0.9119 0.0221,-1.0593 0.0377,-0.7319 0.1695,-1.0299 0.4447,-1.3717 0.1489,-0.7007 0.282,-0.9621 0.2004,-1.1412 0.2353,-1.1789 -0.0817,-0.9451 -0.0229,-1.2396 0.0173,-0.4025 0.1244,-0.4439 0.0102,-0.5477 -0.0365,-0.7647 -0.163,-0.3572 0.0535,-0.4039 -0.3447,-0.3487 -0.348,-0.4212 -0.2895,-0.7161 -0.0555,-0.3988 -2.1062,-1.2747 -0.8657,-0.3555 2.3553,-0.6622 -0.7387,-0.8719 2.5334,0.7316 2.3731,-0.0624 15.6098,-0.4677 2.924,0.3478 1.0332,0.6123 L 0,-2e-4 Z m -8.7125,22.7404 0.208,-0.2058 0.1364,-0.3334 0.1304,-0.4634 0.155,-0.3994 0.0899,-0.3963 0.1457,-0.595 0.1335,-0.3986 0.0476,-0.3724 0.0204,-0.4802 -0.007,-0.6092 -0.1304,-0.4513 -0.3127,-0.6165 -0.3385,-0.7024 -0.4028,-0.6778 -0.214,-0.3818 -0.199,-0.5131 -0.2888,-0.574 -0.1698,-0.8195 -0.053,-0.6508 -0.007,-1.5024 0.0155,-0.5887 0.0794,-0.6137 0.061,-0.5474 L -9.5155,9.1457 -9.5912,8.4742 -9.6266,7.7355 -9.6941,6.3232 -9.7119,5.4964 -9.8024,4.5207 c 0,0 -0.0343,-0.7169 -0.0405,-0.8473 C -9.8489,3.543 -9.871,3.0867 -9.8772,2.9563 -9.8832,2.8259 -9.926,2.3924 -9.926,2.3924 c 0,0 0.006,-0.3268 10e-4,-0.4356 -0.005,-0.1086 -0.1296,-0.4292 -0.1296,-0.4292 l -0.144,-0.2764 -0.3869,-0.3518 -0.3756,-0.1125 -0.4564,0.0218 -0.2347,0.0984 -0.1179,0.267 -0.2194,0.4241 -0.1242,0.1366 -0.0762,0.2217 c 0,0 0.002,0.5006 0.0507,0.6072 0.0485,0.1065 0.1554,0.9725 0.1554,0.9725 l 0.1151,0.5825 0.1615,1.5602 0.0851,0.8672 -0.0122,0.6539 0.009,0.6313 0.009,0.6528 0.0882,0.4748 0.231,0.7294 0.1987,0.5133 0.1894,0.775 0.1927,0.8399 0.235,0.8164 0.1936,0.862 0.0905,0.9757 0.006,1.0448 c 0,0 0.0195,0.413 0.028,0.5868 0.008,0.1738 -0.1003,0.6364 -0.1003,0.6364 l -0.1695,0.5525 -0.0868,0.4614 0.0239,0.4998 0.0858,0.4314 0.4017,0.656 0.2931,0.661 0.1945,0.4263 0.1119,0.5174 0.091,0.54 0.1347,0.538 0.0643,0.4325 0.1026,0.3218 0.3031,-0.0363 z m -14.044,23.9057 -0.508,0.0496 -0.3943,0.2999 -0.4473,0.2511 -0.4949,0.33 -0.3441,0.2716 -0.307,0.5252 -0.457,0.5837 -0.263,0.3699 -0.3906,0.3759 -0.2957,0.2185 -0.3481,0.1953 -0.273,0.1661 -0.1647,0.2889 -0.4376,0.991 -0.2098,0.4184 -0.239,0.3432 -0.1139,0.2863 0.009,0.1783 0.4439,0.2084 0.5468,0.229 0.3713,0.2886 0.188,0.1953 0.2075,0.0666 0.1236,-0.0825 0.1805,-0.4935 0.165,-0.2888 0.1817,-0.468 0.3155,-0.347 0.246,-0.1905 0.1939,-0.2134 0.1055,-0.4646 0.2885,-0.9074 0.1577,-0.4414 0.3429,-0.8333 0.6282,-0.7447 0.3623,-0.4258 0.1879,-0.341 0.2667,-0.2934 0.0922,-0.2086 0.1202,-0.159 -0.0366,-0.2279 z"
             style="fill:#4daf5c;fill-opacity:1;fill-rule:evenodd;stroke:#023b41;stroke-width:0;stroke-linecap:butt;stroke-linejoin:miter;stroke-miterlimit:10;stroke-dasharray:none;stroke-opacity:1"
             id="path4187" />
          <path
             d="M 4,35 C 31.006,33.2499 38.7057,12.6492 16.9623,-2.7444 L 16.4419,0.6229 C 35.7234,15.2967 24.041,32.2459 4,35"
             style="fill:#023b41;fill-opacity:1;fill-rule:evenodd;stroke:none"
             id="path4191" />
        </g>
      </g>
      <path
         style="fill:#4daf5c"
         id="path4"
         d="M 58.1,24.6 V 12.3 0 L 50.4,13.4 C 29.5,18.1 13.7,36.1 12.3,58.1 h 12.3 c 1.5,-17.8 15.7,-32 33.5,-33.5"
         class="st0" />
      <path
         style="fill:#023b41"
         id="path6"
         d="M 24.6,64.2 H 12.3 0 l 13.4,7.7 c 4.7,20.9 22.7,36.7 44.7,38.1 V 97.8 C 40.3,96.3 26.1,82.1 24.6,64.2"
         class="st1" />
      <path
         style="fill:#023b41"
         id="path8"
         d="M 97.8,58.1 H 110 122.3 L 108.9,50.4 C 104.2,29.5 86.2,13.7 64.2,12.3 v 12.3 c 17.9,1.5 32.1,15.7 33.6,33.5"
         class="st1" />
      <path
         style="fill:#4daf5c"
         id="path10"
         d="m 64.2,97.8 v 12.2 12.3 l 7.7,-13.4 C 92.8,104.2 108.6,86.2 110,64.2 H 97.8 C 96.3,82.1 82.1,96.3 64.2,97.8"
         class="st0" />
      <g
         id="text29"
         style="font-weight:700;font-size:80px;font-family:'Miriam Libre';fill:url(#osgeo-be)"
         aria-label="OSGeo·BE">
        <path
           id="path41"
           style="fill:#4daf5c"
           d="m 156.08,91.04 q -5.76,0 -10.64,-2.8 -4.88,-2.88 -7.76,-7.68 -2.8,-4.88 -2.8,-10.64 V 52.88 q 0,-5.76 2.8,-10.56 2.88,-4.88 7.76,-7.68 4.88,-2.88 10.64,-2.88 5.76,0 10.64,2.88 4.88,2.8 7.68,7.68 2.88,4.8 2.88,10.56 v 17.04 q 0,5.76 -2.88,10.64 -2.8,4.8 -7.68,7.68 -4.88,2.8 -10.64,2.8 z m 0,-9.36 q 3.04,0 5.68,-1.6 2.64,-1.6 4.16,-4.32 1.6,-2.72 1.6,-5.84 V 52.88 q 0,-3.12 -1.6,-5.84 -1.52,-2.72 -4.16,-4.32 -2.64,-1.6 -5.68,-1.6 -3.04,0 -5.68,1.6 -2.64,1.6 -4.24,4.32 -1.52,2.72 -1.52,5.84 v 17.04 q 0,3.12 1.52,5.84 1.6,2.72 4.24,4.32 2.64,1.6 5.68,1.6 z" />
        <path
           id="path43"
           style="fill:#4daf5c"
           d="m 202.675,90.96 q -4.32,0 -8.56,-1.36 -4.16,-1.44 -7.76,-3.92 -0.4,-0.24 -0.56,-0.8 -0.16,-0.64 0.08,-1.12 l 2.8,-5.04 q 0.48,-0.96 1.52,-0.96 0.64,0 1.2,0.32 6,3.76 11.2,3.76 4.24,0 6.64,-2 2.48,-2.08 2.48,-5.36 0,-2.16 -1.2,-3.6 -1.2,-1.52 -3.2,-2.56 -2,-1.04 -5.84,-2.56 l -2.32,-0.96 q -5.44,-2.32 -9.2,-5.92 -3.68,-3.6 -3.68,-10.56 0,-4.88 2.16,-8.64 2.24,-3.76 6.16,-5.84 3.92,-2.08 9.04,-2.08 4.24,0 8.4,1.44 4.24,1.36 7.6,3.84 0.4,0.24 0.56,0.88 0.16,0.56 -0.08,1.04 l -2.64,5.04 q -0.48,0.96 -1.52,0.96 -0.64,0 -1.2,-0.32 -3.12,-2 -6,-2.88 -2.8,-0.88 -5.04,-0.88 -3.6,0 -5.68,2 -2.08,1.92 -2.08,4.96 0,3.12 2.24,5.2 2.32,2 7.36,4.08 0.72,0.24 5.44,2.24 4.8,1.92 7.6,5.68 2.8,3.76 2.8,8.88 0,4.96 -2.4,8.88 -2.32,3.84 -6.56,6 -4.24,2.16 -9.76,2.16 z" />
        <path
           id="path45"
           style="fill:#023b41"
           d="m 252.09375,91.04 q -5.76,0 -10.64,-2.8 -4.8,-2.88 -7.68,-7.68 -2.8,-4.88 -2.8,-10.64 V 52.88 q 0,-5.76 2.8,-10.56 2.88,-4.88 7.68,-7.68 4.88,-2.88 10.64,-2.88 5.04,0 9.36,1.84 4.32,1.76 7.36,5.2 0.48,0.56 0.48,1.36 0,0.8 -0.64,1.6 l -3.52,3.68 q -0.64,0.64 -1.28,0.64 -0.8,0 -1.44,-0.72 -4,-4.24 -10.24,-4.24 -3.04,0 -5.68,1.6 -2.64,1.6 -4.24,4.32 -1.52,2.72 -1.52,5.84 v 17.04 q 0,3.12 1.52,5.84 1.6,2.72 4.24,4.32 2.64,1.6 5.68,1.6 3.04,0 5.68,-1.52 2.64,-1.52 4.16,-4.16 1.52,-2.64 1.52,-5.76 v -3.92 h -10.72 q -0.72,0 -1.2,-0.48 -0.48,-0.48 -0.48,-1.2 v -5.76 q 0,-0.72 0.48,-1.2 0.48,-0.48 1.2,-0.48 h 16.88 q 1.44,0 2.4,1.04 1.04,0.96 1.04,2.4 v 9.28 q 0,5.76 -2.88,10.64 -2.8,4.8 -7.68,7.68 -4.8,2.8 -10.48,2.8 z" />
        <path
           id="path47"
           style="fill:#023b41"
           d="m 301.88125,90 q -5.2,0 -9.6,-2.56 -4.32,-2.56 -6.88,-6.96 -2.56,-4.4 -2.56,-9.6 v -8.64 q 0,-5.2 2.56,-9.6 2.56,-4.4 6.88,-6.96 4.4,-2.56 9.6,-2.56 5.2,0 9.52,2.56 4.4,2.56 6.96,6.96 2.56,4.4 2.56,9.6 v 5.36 q 0,1.44 -1.04,2.48 -0.96,0.96 -2.4,0.96 h -25.04 v 0.4 q 0,3.92 2.72,6.72 2.8,2.72 6.72,2.72 h 12.72 q 0.72,0 1.2,0.48 0.48,0.48 0.48,1.2 v 5.76 q 0,0.72 -0.48,1.2 -0.48,0.48 -1.2,0.48 z m 9.44,-27.6 v -0.72 q 0,-3.92 -2.8,-6.64 -2.72,-2.8 -6.64,-2.8 -3.92,0 -6.72,2.8 -2.72,2.72 -2.72,6.64 v 0.72 z" />
        <path
           id="path49"
           style="fill:#023b41"
           d="m 349.225,91.04 q -5.2,0 -9.6,-2.48 -4.32,-2.56 -6.88,-6.88 -2.56,-4.32 -2.56,-9.36 V 61.84 q 0,-5.04 2.56,-9.36 2.56,-4.32 6.88,-6.8 4.4,-2.56 9.6,-2.56 5.2,0 9.52,2.56 4.4,2.48 6.96,6.8 2.56,4.32 2.56,9.36 v 10.48 q 0,5.04 -2.56,9.36 -2.56,4.32 -6.96,6.88 -4.32,2.48 -9.52,2.48 z m 0,-9.28 q 3.92,0 6.64,-2.72 2.8,-2.8 2.8,-6.72 V 61.84 q 0,-3.92 -2.8,-6.64 -2.72,-2.8 -6.64,-2.8 -3.92,0 -6.72,2.8 -2.72,2.72 -2.72,6.64 v 10.48 q 0,3.92 2.72,6.72 2.8,2.72 6.72,2.72 z" />
        <path
           id="path51"
           style="fill:#4daf5c"
           d="m 384.56875,66.32 q -2.8,0 -4.8,-1.92 -1.92,-1.92 -1.92,-4.72 0,-2.8 1.92,-4.72 2,-1.92 4.8,-1.92 2.72,0 4.64,2 1.92,1.92 1.92,4.64 0,2.72 -1.92,4.72 -1.92,1.92 -4.64,1.92 z" />
        <path
           id="path53"
           style="fill:#023b41"
           d="m 405.77375,90 q -1.44,0 -2.48,-0.96 -0.96,-1.04 -0.96,-2.48 V 36.24 q 0,-1.44 0.96,-2.4 1.04,-1.04 2.48,-1.04 h 14.16 q 4.48,0 8.16,2.16 3.76,2.16 5.92,5.84 2.24,3.6 2.24,8 0,5.92 -4.96,10.16 4.08,1.68 6.32,5.28 2.24,3.52 2.24,8.32 0,4.8 -2.4,8.8 -2.32,4 -6.32,6.32 -4,2.32 -8.8,2.32 z m 13.44,-34.08 q 3.04,0 5.2,-2.08 2.24,-2.08 2.24,-4.88 0,-2.96 -2.24,-5.04 -2.16,-2.08 -5.2,-2.08 h -7.28 v 14.08 z m 2.72,24.96 q 3.6,0 5.92,-2.32 2.32,-2.32 2.32,-6 0,-3.44 -2.4,-5.68 -2.32,-2.32 -5.84,-2.32 h -10 v 16.32 z" />
        <path
           id="path55"
           style="fill:#023b41"
           d="m 452.805,90 q -1.44,0 -2.48,-0.96 -0.96,-1.04 -0.96,-2.48 V 36.24 q 0,-1.44 0.96,-2.4 1.04,-1.04 2.48,-1.04 h 27.28 q 0.72,0 1.2,0.48 0.48,0.48 0.48,1.2 v 6 q 0,0.72 -0.48,1.2 -0.48,0.48 -1.2,0.48 h -20.96 v 13.6 h 15.6 q 0.72,0 1.2,0.48 0.48,0.48 0.48,1.2 v 5.68 q 0,0.72 -0.48,1.2 -0.48,0.48 -1.2,0.48 h -15.6 v 15.84 h 20.96 q 0.72,0 1.2,0.48 0.48,0.48 0.48,1.2 v 6 q 0,0.72 -0.48,1.2 -0.48,0.48 -1.2,0.48 z" />
      </g>
    </g>
  </g>
  <!-- https://github.com/OSGeo/osgeo/blob/master/marketing/branding/subbrands/subbrand-generator.svg -->
  <!--<g id="Page-1" stroke="none" stroke-width="1" fill="none" fill-rule="evenodd">
    <g id="OSGeo_template">
        <text id="Template" fill="#0B3A42" font-family="Miriam Libre" font-size="58" font-weight="400">
            <tspan x="204.4043" y="200.4711">Belgium</tspan>
        </text>
        <g id="osgeo" transform="translate(7.000000, 7.000000)" fill-rule="nonzero">
            <path d="M218.7,131.7 C213.7,128.8 209.7,124.8 206.8,119.8 C203.9,114.8 202.4,109.3 202.4,103.3 L202.4,76.8 C202.4,70.8 203.9,65.3 206.8,60.3 C209.7,55.3 213.7,51.3 218.7,48.4 C223.7,45.5 229.2,44 235.1,44 C241,44 246.5,45.5 251.5,48.4 C256.5,51.3 260.5,55.3 263.4,60.3 C266.3,65.3 267.8,70.8 267.8,76.8 L267.8,103.3 C267.8,109.3 266.3,114.8 263.4,119.8 C260.5,124.8 256.5,128.8 251.5,131.7 C246.5,134.6 241,136.1 235.1,136.1 C229.2,136.1 223.7,134.6 218.7,131.7 M243.9,119.1 C246.6,117.4 248.8,115.2 250.4,112.4 C252,109.6 252.8,106.6 252.8,103.3 L252.8,76.8 C252.8,73.6 252,70.5 250.4,67.7 C248.8,64.9 246.6,62.6 243.9,61 C241.2,59.4 238.3,58.5 235.1,58.5 C232,58.5 229,59.3 226.3,61 C223.6,62.7 221.4,64.9 219.8,67.7 C218.2,70.5 217.4,73.5 217.4,76.8 L217.4,103.3 C217.4,106.5 218.2,109.6 219.8,112.4 C221.4,115.2 223.6,117.5 226.3,119.1 C229,120.8 231.9,121.6 235.1,121.6 C238.2,121.5 241.2,120.7 243.9,119.1" id="Shape" fill="#4DB05B"></path>
            <path d="M291.8,133.8 C287.5,132.4 283.5,130.3 279.8,127.8 C279.4,127.6 279.1,127.1 278.9,126.5 C278.7,125.9 278.8,125.3 279,124.8 L283.3,117 C283.8,116 284.6,115.5 285.6,115.5 C286.3,115.5 286.9,115.7 287.5,116 C293.7,119.9 299.4,121.8 304.8,121.8 C309.2,121.8 312.6,120.7 315.1,118.6 C317.6,116.5 318.9,113.7 318.9,110.3 C318.9,108.1 318.3,106.2 317,104.6 C315.8,103.1 314.1,101.8 312.1,100.7 C310,99.6 307,98.3 303.1,96.7 L299.5,95.2 C293.9,92.8 289.2,89.7 285.4,86 C281.6,82.3 279.6,76.8 279.6,69.6 C279.6,64.5 280.7,60.1 283,56.2 C285.3,52.3 288.4,49.3 292.5,47.1 C296.5,44.9 301.2,43.9 306.5,43.9 C310.9,43.9 315.2,44.6 319.5,46.1 C323.8,47.6 327.7,49.6 331.2,52.1 C331.6,52.3 331.9,52.8 332.1,53.4 C332.3,54 332.2,54.6 332,55.1 L327.9,62.9 C327.4,63.9 326.6,64.4 325.5,64.4 C324.8,64.4 324.2,64.2 323.6,63.9 C320.4,61.8 317.3,60.3 314.4,59.4 C311.5,58.5 308.9,58 306.6,58 C302.9,58 300,59 297.8,61 C295.7,63 294.6,65.6 294.6,68.8 C294.6,72 295.8,74.7 298.1,76.8 C300.5,78.9 304.2,81 309.4,83.2 C310.1,83.4 313,84.6 317.9,86.6 C322.8,88.6 326.7,91.6 329.6,95.5 C332.5,99.4 333.9,104 333.9,109.3 C333.9,114.4 332.7,119 330.3,123 C327.9,127 324.5,130.1 320.1,132.4 C315.7,134.7 310.7,135.8 305,135.8 C300.5,136 296.1,135.2 291.8,133.8" id="Shape" fill="#4DB05B"></path>
            <path d="M361.8,131.7 C356.8,128.8 352.9,124.8 349.9,119.8 C347,114.8 345.5,109.3 345.5,103.3 L345.5,76.8 C345.5,70.8 347,65.3 349.9,60.3 C352.8,55.3 356.8,51.3 361.8,48.4 C366.8,45.5 372.2,44 378.2,44 C383.4,44 388.2,44.9 392.7,46.8 C397.1,48.7 400.9,51.4 404.1,54.9 C404.6,55.5 404.8,56.2 404.8,57 C404.8,57.8 404.5,58.7 403.8,59.5 L398.4,65.2 C397.7,65.9 397.1,66.2 396.4,66.2 C395.6,66.2 394.8,65.8 394.2,65.1 C390.1,60.7 384.8,58.5 378.4,58.5 C375.3,58.5 372.3,59.3 369.6,61 C366.9,62.7 364.7,64.9 363.1,67.7 C361.5,70.5 360.7,73.5 360.7,76.8 L360.7,103.3 C360.7,106.5 361.5,109.6 363.1,112.4 C364.7,115.2 366.9,117.5 369.6,119.1 C372.3,120.8 375.2,121.6 378.4,121.6 C381.5,121.6 384.5,120.8 387.2,119.2 C389.9,117.6 392.1,115.5 393.6,112.7 C395.2,110 395.9,107 395.9,103.8 L395.9,97.7 L379.3,97.7 C378.6,97.7 377.9,97.5 377.4,97 C376.9,96.5 376.7,95.9 376.7,95.1 L376.7,86.2 C376.7,85.5 376.9,84.8 377.4,84.3 C377.9,83.8 378.5,83.6 379.3,83.6 L405.4,83.6 C406.9,83.6 408.1,84.1 409.2,85.1 C410.2,86.1 410.7,87.4 410.7,88.9 L410.7,103.3 C410.7,109.3 409.2,114.8 406.3,119.8 C403.4,124.8 399.4,128.8 394.4,131.7 C389.4,134.6 384,136.1 378.2,136.1 C372.2,136.1 366.8,134.6 361.8,131.7" id="Shape" fill="#003A40"></path>
            <path d="M438,130.5 C433.5,127.9 429.9,124.2 427.3,119.7 C424.7,115.2 423.3,110.2 423.3,104.8 L423.3,91.4 C423.3,86 424.6,81 427.3,76.5 C429.9,72 433.5,68.3 438,65.7 C442.5,63.1 447.4,61.7 452.8,61.7 C458.2,61.7 463.1,63 467.6,65.7 C472.1,68.3 475.7,72 478.3,76.5 C480.9,81.1 482.3,86 482.3,91.4 L482.3,99.7 C482.3,101.2 481.8,102.4 480.8,103.5 C479.8,104.5 478.5,105 477,105 L438.3,105 L438.3,105.6 C438.3,109.7 439.7,113.1 442.6,116 C445.5,118.9 448.9,120.3 452.9,120.3 L472.5,120.3 C473.2,120.3 473.9,120.6 474.4,121.1 C474.9,121.6 475.1,122.2 475.1,123 L475.1,132 C475.1,132.7 474.9,133.4 474.4,133.9 C473.9,134.4 473.3,134.6 472.5,134.6 L452.9,134.6 C447.4,134.5 442.4,133.1 438,130.5 L438,130.5 Z M467.3,91.6 L467.3,90.5 C467.3,86.4 465.9,83 463,80.1 C460.2,77.2 456.7,75.8 452.7,75.8 C448.7,75.8 445.2,77.2 442.4,80.1 C439.6,83 438.1,86.4 438.1,90.5 L438.1,91.6 L467.3,91.6 Z" id="Shape" fill="#003A40"></path>
            <path d="M508,132.2 C503.5,129.6 499.9,126.1 497.3,121.6 C494.7,117.1 493.4,112.3 493.4,107.1 L493.4,90.7 C493.4,85.5 494.7,80.6 497.3,76.2 C499.9,71.7 503.5,68.2 508,65.6 C512.5,63 517.4,61.7 522.8,61.7 C528.2,61.7 533.1,63 537.6,65.6 C542.1,68.2 545.7,71.8 548.3,76.2 C550.9,80.7 552.3,85.5 552.3,90.7 L552.3,107 C552.3,112.2 551,117.1 548.3,121.5 C545.7,126 542.1,129.5 537.6,132.1 C533.1,134.7 528.2,136 522.8,136 C517.4,136.1 512.4,134.8 508,132.2 M533,117.4 C535.8,114.5 537.3,111.1 537.3,107 L537.3,90.7 C537.3,86.6 535.9,83.2 533,80.3 C530.2,77.4 526.7,76 522.7,76 C518.7,76 515.2,77.4 512.4,80.3 C509.6,83.2 508.1,86.6 508.1,90.7 L508.1,107 C508.1,111.1 509.5,114.5 512.4,117.4 C515.2,120.3 518.7,121.7 522.7,121.7 C526.8,121.7 530.2,120.2 533,117.4" id="Shape" fill="#003A40"></path>
            <path d="M85.5,36.2 L85.5,18.2 L85.5,0 L74.2,19.8 C43.4,26.7 20.1,53.2 18.1,85.6 L36.2,85.6 C38.4,59.3 59.3,38.4 85.5,36.2" id="Shape" fill="#4DB05B"></path>
            <path d="M36.2,94.6 L18.2,94.6 L0,94.6 L19.8,105.9 C26.7,136.7 53.2,160 85.6,162 L85.6,143.9 C59.3,141.7 38.4,120.8 36.2,94.6" id="Shape" fill="#003A40"></path>
            <path d="M143.9,85.5 L162,85.5 L180.2,85.5 L160.4,74.2 C153.5,43.4 127,20.1 94.6,18.1 L94.6,36.2 C120.8,38.4 141.7,59.3 143.9,85.5" id="Shape" fill="#003A40"></path>
            <path d="M94.5,143.9 L94.5,162 L94.5,180.2 L105.8,160.4 C136.6,153.5 159.9,127 161.9,94.6 L143.8,94.6 C141.7,120.8 120.8,141.7 94.5,143.9" id="Shape" fill="#4DB05B"></path>
            <path d="M95.6,84.5 L62.2,62.2 L84.5,95.6 L117.9,117.9 L95.6,84.5 Z M90,93.9 C87.8,93.9 86.1,92.1 86.1,90 C86.1,87.8 87.9,86.1 90,86.1 C92.2,86.1 93.9,87.9 93.9,90 C93.9,92.1 92.2,93.9 90,93.9 L90,93.9 Z" id="Shape" fill="#003A40"></path>
            <polygon id="Shape" fill="#4DB05B" points="84.5 95.6 77 84.4 42.8 90.1 77 95.7 62.2 117.9 84.3 103.1 90 137.3 95.7 103.1"></polygon>
            <polygon id="Shape" fill="#4DB05B" points="103.1 84.4 117.9 62.2 95.7 77 90 42.8 84.4 77 95.6 84.5 103.1 95.7 137.3 90"></polygon>
        </g>
    </g>
  </g>-->
</svg>
